<svg xmlns="http://www.w3.org/2000/svg" xmlns:xlink="http://www.w3.org/1999/xlink" width="500" zoomAndPan="magnify" viewBox="0 0 375 374.999991" height="500" preserveAspectRatio="xMidYMid meet" version="1.0"><defs><g/><clipPath id="2f68b6ff77"><path d="M 61 174 L 112.5 174 L 112.5 255.964844 L 61 255.964844 Z M 61 174 " clip-rule="nonzero"/></clipPath><clipPath id="6f6ccb2612"><path d="M 20 138.214844 L 76 138.214844 L 76 224 L 20 224 Z M 20 138.214844 " clip-rule="nonzero"/></clipPath></defs><rect x="-37.5" width="450" fill="#ffffff" y="-37.499999" height="449.999989" fill-opacity="1"/><rect x="-37.5" width="450" fill="#ffffff" y="-37.499999" height="449.999989" fill-opacity="1"/><g fill="#000000" fill-opacity="1"><g transform="translate(122.989279, 212.075165)"><g><path d="M 28.0625 0 L 26.546875 -5.09375 L 13.90625 -5.09375 L 12.375 0 L 0.53125 0 L 13.6875 -36.09375 L 27.171875 -36.09375 L 40.34375 0 Z M 16.3125 -13.171875 L 24.125 -13.171875 L 20.359375 -26.015625 L 20.140625 -26.015625 Z M 16.3125 -13.171875 "/></g></g></g><g fill="#000000" fill-opacity="1"><g transform="translate(162.732489, 212.075165)"><g><path d="M 21.09375 -36.71875 C 26.4375 -36.71875 30.664062 -35.378906 33.78125 -32.703125 C 36.894531 -30.023438 38.453125 -26.207031 38.453125 -21.25 L 27.375 -21.25 C 27.375 -23.34375 26.820312 -25 25.71875 -26.21875 C 24.625 -27.445312 23.0625 -28.0625 21.03125 -28.0625 C 18.6875 -28.0625 16.960938 -27.328125 15.859375 -25.859375 C 14.765625 -24.390625 14.21875 -22.34375 14.21875 -19.71875 L 14.21875 -16.359375 C 14.21875 -13.773438 14.765625 -11.738281 15.859375 -10.25 C 16.960938 -8.769531 18.648438 -8.03125 20.921875 -8.03125 C 23.160156 -8.03125 24.859375 -8.601562 26.015625 -9.75 C 27.171875 -10.90625 27.75 -12.535156 27.75 -14.640625 L 38.453125 -14.640625 C 38.453125 -9.703125 36.9375 -5.921875 33.90625 -3.296875 C 30.882812 -0.679688 26.613281 0.625 21.09375 0.625 C 14.9375 0.625 10.273438 -0.945312 7.109375 -4.09375 C 3.941406 -7.238281 2.359375 -11.890625 2.359375 -18.046875 C 2.359375 -24.203125 3.941406 -28.851562 7.109375 -32 C 10.273438 -35.144531 14.9375 -36.71875 21.09375 -36.71875 Z M 21.09375 -36.71875 "/></g></g></g><g fill="#000000" fill-opacity="1"><g transform="translate(202.475699, 212.075165)"><g><path d="M 3.875 -36.09375 L 35.09375 -36.09375 L 35.09375 -27.4375 L 15.46875 -27.4375 L 15.46875 -22.453125 L 32.265625 -22.453125 L 32.265625 -14.15625 L 15.46875 -14.15625 L 15.46875 -8.65625 L 35.453125 -8.65625 L 35.453125 0 L 3.875 0 Z M 3.875 -36.09375 "/></g></g></g><g fill="#000000" fill-opacity="1"><g transform="translate(239.282697, 212.075165)"><g><path d="M 27.90625 -36.09375 C 29.71875 -36.09375 31.382812 -35.710938 32.90625 -34.953125 C 34.4375 -34.203125 35.644531 -33.144531 36.53125 -31.78125 C 37.425781 -30.414062 37.875 -28.894531 37.875 -27.21875 C 37.875 -22.78125 35.863281 -19.984375 31.84375 -18.828125 L 31.84375 -18.625 C 36.414062 -17.570312 38.703125 -14.5625 38.703125 -9.59375 C 38.703125 -7.707031 38.238281 -6.035156 37.3125 -4.578125 C 36.394531 -3.128906 35.128906 -2.003906 33.515625 -1.203125 C 31.910156 -0.398438 30.144531 0 28.21875 0 L 3.875 0 L 3.875 -36.09375 Z M 15.46875 -22.03125 L 23.453125 -22.03125 C 24.210938 -22.03125 24.847656 -22.300781 25.359375 -22.84375 C 25.867188 -23.382812 26.125 -24.054688 26.125 -24.859375 L 26.125 -25.390625 C 26.125 -26.160156 25.859375 -26.816406 25.328125 -27.359375 C 24.804688 -27.898438 24.179688 -28.171875 23.453125 -28.171875 L 15.46875 -28.171875 Z M 15.46875 -8.390625 L 24.28125 -8.390625 C 25.050781 -8.390625 25.6875 -8.660156 26.1875 -9.203125 C 26.695312 -9.742188 26.953125 -10.414062 26.953125 -11.21875 L 26.953125 -11.75 C 26.953125 -12.550781 26.695312 -13.222656 26.1875 -13.765625 C 25.6875 -14.304688 25.050781 -14.578125 24.28125 -14.578125 L 15.46875 -14.578125 Z M 15.46875 -8.390625 "/></g></g></g><g fill="#000000" fill-opacity="1"><g transform="translate(279.025913, 212.075165)"><g><path d="M 4.40625 0 L 4.40625 -36.09375 L 16 -36.09375 L 16 0 Z M 4.40625 0 "/></g></g></g><g fill="#000000" fill-opacity="1"><g transform="translate(298.373016, 212.075165)"><g><path d="M 24.65625 -26.859375 L 24.65625 0 L 13.0625 0 L 13.0625 -26.859375 L 1.203125 -26.859375 L 1.203125 -36.09375 L 36.453125 -36.09375 L 36.453125 -26.859375 Z M 24.65625 -26.859375 "/></g></g></g><g fill="#000000" fill-opacity="1"><g transform="translate(335.180015, 212.075165)"><g><path d="M 3.203125 0 L 3.203125 -10.4375 L 14.3125 -10.4375 L 14.3125 0 Z M 3.203125 0 "/></g></g></g><path fill="#178f04" d="M 10.175781 226.914062 L 71.09375 226.914062 L 80.738281 247.132812 L 0.0234375 247.132812 L 10.175781 226.914062 " fill-opacity="1" fill-rule="evenodd"/><g clip-path="url(#2f68b6ff77)"><path fill="#9fff02" d="M 104.597656 238.402344 L 112.46875 255.636719 L 88.605469 255.636719 L 61.195312 197.957031 L 73.125 174.519531 L 104.597656 238.402344 " fill-opacity="1" fill-rule="evenodd"/></g><g clip-path="url(#6f6ccb2612)"><path fill="#55f809" d="M 48.757812 214.964844 L 44.695312 223.464844 L 20.582031 223.464844 L 63.984375 138.210938 L 75.664062 162.109375 L 48.757812 214.964844 " fill-opacity="1" fill-rule="evenodd"/></g></svg>